<svg xmlns="http://www.w3.org/2000/svg" width="25" height="25" viewBox="0 0 25 25">
  <path id="Trazado_126" data-name="Trazado 126" d="M1074.11,121.421a10.06,10.06,0,0,1-1.353,4.923.977.977,0,0,0,.212,1.386c1.7,1.668,3.4,3.342,5.05,5.061a2.625,2.625,0,0,1,.657,1.38,1.718,1.718,0,0,1-1.06,1.812,1.9,1.9,0,0,1-2.2-.373c-1.635-1.611-3.253-3.239-4.878-4.86-.9-.9-.884-.872-2-.334a10.2,10.2,0,0,1-14.829-9.739,10.185,10.185,0,0,1,20.178-1.157C1073.992,120.15,1074.037,120.787,1074.11,121.421Zm-10.2-6.808a6.755,6.755,0,1,0,6.729,6.8A6.734,6.734,0,0,0,1063.908,114.613Z" transform="translate(-1053.693 -111.181)" fill="#fff"/>
</svg>
